<svg width="1323" height="2245" viewBox="0 0 1323 2245" fill="none" xmlns="http://www.w3.org/2000/svg">
<g filter="url(#filter0_f_330_6994)">
<path fill-rule="evenodd" clip-rule="evenodd" d="M204.949 935.956C242.343 935.383 274.586 891.437 310.901 901.496C347.25 911.564 371.215 951.401 390.688 987.406C410.43 1023.91 425.376 1065.55 422.686 1108.18C420.061 1149.8 401.752 1189.4 376.049 1219.44C352.731 1246.7 314.706 1246.7 286.533 1267.34C256.203 1289.55 240.968 1340.93 204.949 1344.77C169.491 1348.55 145.328 1304.68 113.938 1285.73C81.3275 1266.03 29.2639 1269.89 16.3039 1230.85C2.5759 1189.5 56.4101 1152.3 54.9927 1108.18C53.4866 1061.31 -1.95154 1025.75 8.25287 980.28C17.741 937.999 62.6818 913.276 100.651 904.72C136.537 896.633 168.355 936.517 204.949 935.956Z" fill="#41DA8E"/>
</g>
<defs>
<filter id="filter0_f_330_6994" x="-892.8" y="0.200012" width="2215.6" height="2244.6" filterUnits="userSpaceOnUse" color-interpolation-filters="sRGB">
<feFlood flood-opacity="0" result="BackgroundImageFix"/>
<feBlend mode="normal" in="SourceGraphic" in2="BackgroundImageFix" result="shape"/>
<feGaussianBlur stdDeviation="449.9" result="effect1_foregroundBlur_330_6994"/>
</filter>
</defs>
</svg>
