<svg width="348" height="260" viewBox="0 0 348 260" fill="none" xmlns="http://www.w3.org/2000/svg">
<path fill-rule="evenodd" clip-rule="evenodd" d="M343 250C340.239 250 338 252.239 338 255C338 257.761 340.239 260 343 260C345.761 260 348 257.761 348 255C348 252.239 345.761 250 343 250ZM343 200C340.239 200 338 202.239 338 205C338 207.761 340.239 210 343 210C345.761 210 348 207.761 348 205C348 202.239 345.761 200 343 200ZM338 155C338 152.239 340.239 150 343 150C345.761 150 348 152.239 348 155C348 157.761 345.761 160 343 160C340.239 160 338 157.761 338 155ZM343 100C340.239 100 338 102.239 338 105C338 107.761 340.239 110 343 110C345.761 110 348 107.761 348 105C348 102.239 345.761 100 343 100ZM338 55C338 52.2386 340.239 50 343 50C345.761 50 348 52.2386 348 55C348 57.7614 345.761 60 343 60C340.239 60 338 57.7614 338 55ZM343 0C340.239 0 338 2.23859 338 5C338 7.76143 340.239 10 343 10C345.761 10 348 7.76143 348 5C348 2.23859 345.761 0 343 0ZM288 255C288 252.239 290.239 250 293 250C295.761 250 298 252.239 298 255C298 257.761 295.761 260 293 260C290.239 260 288 257.761 288 255ZM293 200C290.239 200 288 202.239 288 205C288 207.761 290.239 210 293 210C295.761 210 298 207.761 298 205C298 202.239 295.761 200 293 200ZM288 155C288 152.239 290.239 150 293 150C295.761 150 298 152.239 298 155C298 157.761 295.761 160 293 160C290.239 160 288 157.761 288 155ZM293 100C290.239 100 288 102.239 288 105C288 107.761 290.239 110 293 110C295.761 110 298 107.761 298 105C298 102.239 295.761 100 293 100ZM288 55C288 52.2386 290.239 50 293 50C295.761 50 298 52.2386 298 55C298 57.7614 295.761 60 293 60C290.239 60 288 57.7614 288 55ZM293 0C290.239 0 288 2.23859 288 5C288 7.76143 290.239 10 293 10C295.761 10 298 7.76143 298 5C298 2.23859 295.761 0 293 0Z" fill="#065A82"/>
<path fill-rule="evenodd" clip-rule="evenodd" d="M10 255C10 252.239 7.76142 250 5 250C2.23858 250 0 252.239 0 255C0 257.761 2.23858 260 5 260C7.76142 260 10 257.761 10 255ZM60 255C60 252.239 57.7614 250 55 250C52.2386 250 50 252.239 50 255C50 257.761 52.2386 260 55 260C57.7614 260 60 257.761 60 255ZM105 250C107.761 250 110 252.239 110 255C110 257.761 107.761 260 105 260C102.239 260 100 257.761 100 255C100 252.239 102.239 250 105 250ZM160 255C160 252.239 157.761 250 155 250C152.239 250 150 252.239 150 255C150 257.761 152.239 260 155 260C157.761 260 160 257.761 160 255ZM205 250C207.761 250 210 252.239 210 255C210 257.761 207.761 260 205 260C202.239 260 200 257.761 200 255C200 252.239 202.239 250 205 250ZM260 255C260 252.239 257.761 250 255 250C252.239 250 250 252.239 250 255C250 257.761 252.239 260 255 260C257.761 260 260 257.761 260 255ZM5 200C7.76142 200 10 202.239 10 205C10 207.761 7.76142 210 5 210C2.23858 210 0 207.761 0 205C0 202.239 2.23858 200 5 200ZM60 205C60 202.239 57.7614 200 55 200C52.2386 200 50 202.239 50 205C50 207.761 52.2386 210 55 210C57.7614 210 60 207.761 60 205ZM105 200C107.761 200 110 202.239 110 205C110 207.761 107.761 210 105 210C102.239 210 100 207.761 100 205C100 202.239 102.239 200 105 200ZM160 205C160 202.239 157.761 200 155 200C152.239 200 150 202.239 150 205C150 207.761 152.239 210 155 210C157.761 210 160 207.761 160 205ZM205 200C207.761 200 210 202.239 210 205C210 207.761 207.761 210 205 210C202.239 210 200 207.761 200 205C200 202.239 202.239 200 205 200ZM260 205C260 202.239 257.761 200 255 200C252.239 200 250 202.239 250 205C250 207.761 252.239 210 255 210C257.761 210 260 207.761 260 205Z" fill="#065A82"/>
</svg>
